<?xml version="1.0" encoding="UTF-8"?>
<!DOCTYPE svg PUBLIC "-//W3C//DTD SVG 1.1//EN" "http://www.w3.org/Graphics/SVG/1.1/DTD/svg11.dtd">
<svg xmlns="http://www.w3.org/2000/svg" xmlns:xlink="http://www.w3.org/1999/xlink" width="68px" height="55px" version="1.1" style="background-color: rgb(255, 255, 255);"><defs/><g transform="translate(0.5,0.5)"><path d="M 1.02 2.57 C 1 2.15 1.16 1.75 1.46 1.45 C 1.76 1.16 2.17 1 2.59 1.02 L 29.41 1.02 C 29.84 1 30.25 1.16 30.54 1.45 C 30.84 1.75 31 2.15 30.98 2.57 L 30.98 23.57 C 30.88 24.36 30.22 24.96 29.41 25 L 2.53 25 C 1.75 24.94 1.12 24.34 1.02 23.57 Z M 8.57 9.72 L 10.23 11 L 10.05 12.37 L 8.15 13.11 L 8.75 15.71 L 10.9 15.44 L 11.71 16.57 L 10.93 18.42 L 13.16 19.79 L 14.46 18.15 L 15.91 18.33 L 16.67 20.2 L 19.26 19.61 L 19.02 17.46 L 20.14 16.57 L 21.92 17.49 L 23.43 15.23 L 21.68 13.89 L 21.86 12.55 L 23.83 11.8 L 23.25 9.24 L 20.99 9.48 L 20.2 8.47 L 21.02 6.5 L 18.75 5.19 L 17.33 6.86 L 15.94 6.65 L 15.07 4.74 L 12.56 5.4 L 12.8 7.48 L 11.86 8.29 L 9.93 7.48 Z M 12.38 13.2 C 12.08 11.76 12.69 10.28 13.93 9.45 C 15.17 8.63 16.8 8.63 18.04 9.45 C 19.28 10.28 19.9 11.76 19.6 13.2 C 19.24 14.89 17.74 16.11 15.99 16.11 C 14.24 16.11 12.73 14.89 12.38 13.2 Z M 14.79 13.14 C 15.03 13.57 15.49 13.84 15.99 13.84 C 16.48 13.84 16.94 13.57 17.18 13.14 C 17.49 12.58 17.35 11.88 16.85 11.47 C 16.35 11.06 15.62 11.06 15.12 11.47 C 14.62 11.88 14.48 12.58 14.79 13.14 Z" fill="#00bef2" stroke="none" pointer-events="none"/><path d="M 35.02 2.57 C 35 2.15 35.16 1.75 35.46 1.45 C 35.76 1.16 36.17 1 36.59 1.02 L 63.41 1.02 C 63.84 1 64.25 1.16 64.54 1.45 C 64.84 1.75 65 2.15 64.98 2.57 L 64.98 23.57 C 64.88 24.36 64.22 24.96 63.41 25 L 36.53 25 C 35.75 24.94 35.12 24.34 35.02 23.57 Z M 42.57 9.72 L 44.23 11 L 44.05 12.37 L 42.15 13.11 L 42.75 15.71 L 44.9 15.44 L 45.71 16.57 L 44.93 18.42 L 47.16 19.79 L 48.46 18.15 L 49.91 18.33 L 50.67 20.2 L 53.26 19.61 L 53.02 17.46 L 54.14 16.57 L 55.92 17.49 L 57.43 15.23 L 55.68 13.89 L 55.86 12.55 L 57.83 11.8 L 57.25 9.24 L 54.99 9.48 L 54.2 8.47 L 55.02 6.5 L 52.75 5.19 L 51.33 6.86 L 49.94 6.65 L 49.07 4.74 L 46.56 5.4 L 46.8 7.48 L 45.86 8.29 L 43.93 7.48 Z M 46.38 13.2 C 46.08 11.76 46.69 10.28 47.93 9.45 C 49.17 8.63 50.8 8.63 52.04 9.45 C 53.28 10.28 53.9 11.76 53.6 13.2 C 53.24 14.89 51.74 16.11 49.99 16.11 C 48.24 16.11 46.73 14.89 46.38 13.2 Z M 48.79 13.14 C 49.03 13.57 49.49 13.84 49.99 13.84 C 50.48 13.84 50.94 13.57 51.18 13.14 C 51.49 12.58 51.35 11.88 50.85 11.47 C 50.35 11.06 49.62 11.06 49.12 11.47 C 48.62 11.88 48.48 12.58 48.79 13.14 Z" fill="#00bef2" stroke="none" pointer-events="none"/><path d="M 1.02 30.57 C 1 30.15 1.16 29.75 1.46 29.45 C 1.76 29.16 2.17 29 2.59 29.02 L 29.41 29.02 C 29.84 29 30.25 29.16 30.54 29.45 C 30.84 29.75 31 30.15 30.98 30.57 L 30.98 51.57 C 30.88 52.36 30.22 52.96 29.41 53 L 2.53 53 C 1.75 52.94 1.12 52.34 1.02 51.57 Z M 8.57 37.72 L 10.23 39 L 10.05 40.37 L 8.15 41.11 L 8.75 43.71 L 10.9 43.44 L 11.71 44.57 L 10.93 46.42 L 13.16 47.79 L 14.46 46.15 L 15.91 46.33 L 16.67 48.2 L 19.26 47.61 L 19.02 45.46 L 20.14 44.57 L 21.92 45.49 L 23.43 43.23 L 21.68 41.89 L 21.86 40.55 L 23.83 39.8 L 23.25 37.24 L 20.99 37.48 L 20.2 36.47 L 21.02 34.5 L 18.75 33.19 L 17.33 34.86 L 15.94 34.65 L 15.07 32.74 L 12.56 33.4 L 12.8 35.48 L 11.86 36.29 L 9.93 35.48 Z M 12.38 41.2 C 12.08 39.76 12.69 38.28 13.93 37.45 C 15.17 36.63 16.8 36.63 18.04 37.45 C 19.28 38.28 19.9 39.76 19.6 41.2 C 19.24 42.89 17.74 44.11 15.99 44.11 C 14.24 44.11 12.73 42.89 12.38 41.2 Z M 14.79 41.14 C 15.03 41.57 15.49 41.84 15.99 41.84 C 16.48 41.84 16.94 41.57 17.18 41.14 C 17.49 40.58 17.35 39.88 16.85 39.47 C 16.35 39.06 15.62 39.06 15.12 39.47 C 14.62 39.88 14.48 40.58 14.79 41.14 Z" fill="#00bef2" stroke="none" pointer-events="none"/><path d="M 35.02 30.57 C 35 30.15 35.16 29.75 35.46 29.45 C 35.76 29.16 36.17 29 36.59 29.02 L 63.41 29.02 C 63.84 29 64.25 29.16 64.54 29.45 C 64.84 29.75 65 30.15 64.98 30.57 L 64.98 51.57 C 64.88 52.36 64.22 52.96 63.41 53 L 36.53 53 C 35.75 52.94 35.12 52.34 35.02 51.57 Z M 42.57 37.72 L 44.23 39 L 44.05 40.37 L 42.15 41.11 L 42.75 43.71 L 44.9 43.44 L 45.71 44.57 L 44.93 46.42 L 47.16 47.79 L 48.46 46.15 L 49.91 46.33 L 50.67 48.2 L 53.26 47.61 L 53.02 45.46 L 54.14 44.57 L 55.92 45.49 L 57.43 43.23 L 55.68 41.89 L 55.86 40.55 L 57.83 39.8 L 57.25 37.24 L 54.99 37.48 L 54.2 36.47 L 55.02 34.5 L 52.75 33.19 L 51.33 34.86 L 49.94 34.65 L 49.07 32.74 L 46.56 33.4 L 46.8 35.48 L 45.86 36.29 L 43.93 35.48 Z M 46.38 41.2 C 46.08 39.76 46.69 38.28 47.93 37.45 C 49.17 36.63 50.8 36.63 52.04 37.45 C 53.28 38.28 53.9 39.76 53.6 41.2 C 53.24 42.89 51.74 44.11 49.99 44.11 C 48.24 44.11 46.73 42.89 46.38 41.2 Z M 48.79 41.14 C 49.03 41.57 49.49 41.84 49.99 41.84 C 50.48 41.84 50.94 41.57 51.18 41.14 C 51.49 40.58 51.35 39.88 50.85 39.47 C 50.35 39.06 49.62 39.06 49.12 39.47 C 48.62 39.88 48.48 40.58 48.79 41.14 Z" fill="#00bef2" stroke="none" pointer-events="none"/></g></svg>